<?xml version="1.0" encoding="UTF-8"?>
<svg id="Layer_2" data-name="Layer 2" xmlns="http://www.w3.org/2000/svg" viewBox="0 0 713.55 266.09">
  <defs>
    <style>
      .cls-1 {
        fill: #fff;
        stroke-width: 0px;
      }
    </style>
  </defs>
  <g>
    <path class="cls-1" d="M471.11,247.83c-18.8,4.81-37.89,5.33-57.1,3.35-19.07-1.96-37.47-6.47-54.79-14.73-5.45-2.6-10.56-5.89-15.79-8.94-.35-.2-.65-1.14-.47-1.49,6.78-13.33,13.64-26.63,20.43-39.96.54-1.05.87-.96,1.71-.36,15.61,11.15,33.19,17.21,52.16,19.58,11.95,1.49,23.88,1.65,35.61-1.62,7.2-2.01,13.72-5.26,18.46-11.21,11.71-14.68,5.22-35.34-13.09-41.86-7.73-2.75-15.79-3.59-23.92-3.7-8.66-.11-17.33,0-26-.08-.45,0-1.29-.78-1.29-1.2-.07-11.27-.07-22.54-.03-33.81,0-.64.28-1.42.7-1.9,15.11-17.44,30.26-34.86,45.4-52.28.25-.29.44-.63.66-.95-.38-.05-.77-.15-1.15-.15-15.92.02-31.85.05-47.77.08-.54,0-1.09-.04-1.63-.06,0-14.9,0-29.81,0-44.71.32-.02.63-.07.95-.07,38.79,0,77.58,0,116.38.05.4,0,1.15.8,1.15,1.22.06,10.82.08,21.64,0,32.46,0,1.03-.51,2.27-1.2,3.05-17.21,19.5-34.48,38.95-51.74,58.41-.26.29-.43.65-.64.98.39.09.78.2,1.17.28,3.45.74,6.94,1.34,10.34,2.25,15.82,4.26,24.75,10.01,34.44,22.55,4.24,5.49,13.53,26.11,10.25,49.66-3.28,23.55-20,55.22-53.2,65.12Z"/>
    <path class="cls-1" d="M396.56,11.84v44.71c-7.62,0-15.24.01-22.86.01-15.33,0-30.67.02-46-.03-1.46,0-1.87.28-1.87,1.8.04,62.68.03,125.36.08,188.04,0,1.43-.26,1.85-1.81,1.85-17.33-.06-34.66-.06-51.99,0-1.32,0-1.62-.33-1.62-1.62.03-62.82.03-125.63.06-188.44,0-1.38-.36-1.65-1.7-1.65-24.63.01-49.26-.03-73.9-.07-.44,0-.9-.06-1.35-.09-7.89.08-15.78.06-23.66.26-9.55.24-19.23-.21-28.63,1.17-28.95,4.26-47.75,20.91-56.19,48.44-6.52,21.27-6.21,42.59,3.57,63.01,9.97,20.83,26.92,33.51,49.44,38.55,21.5,4.8,42.41,2.71,62.24-7.36.48-.25.95-1.05.95-1.6.06-13.25.06-26.49,0-39.74,0-.57-.54-1.39-1.07-1.67-16.29-8.93-32.6-17.81-48.91-26.7-.33-.18-.61-.45-.91-.68.34-.04.68-.11,1.02-.11,13.83.17,27.66.43,41.49.51,19.19.11,38.37.09,57.56.08,1.21,0,1.48.3,1.48,1.48-.04,31.12-.02,62.23-.08,93.35,0,.76-.54,1.79-1.17,2.24-18.07,13.1-38.34,21.28-60.19,25.59-8.55,1.68-60.68,1.78-68.68,0-31.32-6.97-57.1-22.67-75.61-49-15.43-21.95-21.8-46.62-21.21-73.18.3-13.65,2.45-27,7.35-39.77C48.15,50.1,78.83,26.03,121.26,15.63c23.84-5.84,48.17-3.43,72.33-3.79.49-.02.99-.07,1.49-.07h199.99c.49,0,1,.04,1.49.06Z"/>
  </g>
  <polygon class="cls-1" points="682 104.17 682 141.92 634.63 141.92 634.63 189.3 596.87 189.3 596.87 141.92 549.5 141.92 549.5 104.17 596.87 104.17 596.87 56.8 634.63 56.8 634.63 104.17 682 104.17"/>
</svg>